<svg xmlns="http://www.w3.org/2000/svg" viewBox="0 0 512 512" role="img" aria-label="Taiwan News Daily">
  <rect width="512" height="512" rx="104" fill="#0a1214"/>
  <rect x="42" y="42" width="428" height="428" rx="96" fill="#0d1c1f" stroke="#578d88" stroke-width="12"/>
  <rect x="118" y="106" width="268" height="298" rx="26" fill="#ecefe6"/>
  <path d="M118 132c0-14.36 11.64-26 26-26h216c14.36 0 26 11.64 26 26v26H118v-26z" fill="#ca3e37"/>
  <rect x="148" y="200" width="96" height="92" fill="#2d6768"/>
  <g fill="#203032">
    <rect x="266" y="202" width="86" height="14" rx="5"/>
    <rect x="266" y="236" width="86" height="14" rx="5"/>
    <rect x="266" y="270" width="86" height="14" rx="5"/>
    <rect x="148" y="326" width="96" height="14" rx="5"/>
    <rect x="266" y="326" width="86" height="14" rx="5"/>
    <rect x="148" y="360" width="96" height="14" rx="5"/>
    <rect x="266" y="360" width="86" height="14" rx="5"/>
  </g>
</svg>
